<svg width="309" height="319" viewBox="0 10 -10 -184" fill="none" xmlns="http://www.w3.org/2000/svg">
<path d="M159.5 79.75C149.642 79.75 140.005 82.6733 131.808 88.1502C123.612 93.6271 117.223 101.412 113.45 110.519C109.678 119.627 108.691 129.649 110.614 139.318C112.537 148.987 117.284 157.868 124.255 164.839C131.226 171.809 140.107 176.557 149.776 178.48C159.445 180.403 169.467 179.416 178.574 175.643C187.682 171.871 195.467 165.482 200.944 157.285C206.42 149.089 209.344 139.452 209.344 129.594C209.344 116.374 204.092 103.696 194.745 94.3489C185.397 85.0014 172.719 79.75 159.5 79.75Z" fill="black"/>
<path d="M159.5 19.9375C131.897 19.9375 104.914 28.1227 81.9632 43.458C59.0123 58.7934 41.1242 80.59 30.5611 106.092C19.9979 131.593 17.2341 159.655 22.6192 186.727C28.0042 213.8 41.2962 238.667 60.8144 258.186C80.3326 277.704 105.2 290.996 132.273 296.381C159.345 301.766 187.407 299.002 212.908 288.439C238.41 277.876 260.207 259.988 275.542 237.037C290.877 214.086 299.063 187.103 299.063 159.5C299.02 122.499 284.303 87.0249 258.139 60.861C231.975 34.6971 196.501 19.9797 159.5 19.9375ZM239.17 248.481C238.972 235.405 233.644 222.931 224.336 213.746C215.028 204.561 202.483 199.4 189.406 199.375H129.594C116.517 199.4 103.972 204.561 94.6641 213.746C85.3558 222.931 80.0284 235.405 79.8298 248.481C61.7521 232.339 49.0037 211.087 43.2727 187.539C37.5417 163.99 39.0984 139.257 47.7367 116.613C56.3751 93.9692 71.6875 74.4832 91.6464 60.7353C111.605 46.9874 135.269 39.626 159.505 39.626C183.741 39.626 207.405 46.9874 227.364 60.7353C247.323 74.4832 262.635 93.9692 271.273 116.613C279.912 139.257 281.468 163.99 275.737 187.539C270.006 211.087 257.248 232.339 239.17 248.481Z" fill="black"/>
</svg>
