<svg width="30" height="30" viewBox="0 0 30 30" fill="none" xmlns="http://www.w3.org/2000/svg">
<path d="M28.75 13.7625L22.5 13.75C21.8125 13.75 21.25 14.3125 21.25 15V26.25C21.25 26.9375 21.8125 27.5 22.5 27.5H28.75C29.4375 27.5 30 26.9375 30 26.25V15C30 14.3125 29.4375 13.7625 28.75 13.7625ZM28.75 25H22.5V16.25H28.75V25ZM25 2.5H2.5C1.1125 2.5 0 3.6125 0 5V20C0 20.663 0.263392 21.2989 0.732233 21.7678C1.20107 22.2366 1.83696 22.5 2.5 22.5H11.25V25H8.75V27.5H18.75V25H16.25V22.5H18.75V20H2.5V5H25V11.25H27.5V5C27.5 4.33696 27.2366 3.70107 26.7678 3.23223C26.2989 2.76339 25.663 2.5 25 2.5ZM14.9625 11.25L13.75 7.5L12.5375 11.25H8.75L11.8375 13.45L10.6625 17.0875L13.75 14.8375L16.8375 17.0875L15.6625 13.45L18.75 11.25H14.9625Z" fill="black"/>
</svg>
