<svg width="30" height="30" viewBox="0 0 30 30" fill="none" xmlns="http://www.w3.org/2000/svg">
<path d="M25.3125 0H2.8125C1.26562 0 0 1.26562 0 2.8125V27.1875C0 28.7344 1.26562 30 2.8125 30H25.3125C26.8594 30 28.125 28.7344 28.125 27.1875V2.8125C28.125 1.26562 26.8594 0 25.3125 0ZM24.375 26.25H3.75V3.75H24.375V26.25ZM7.5 16.875H20.625V18.75H7.5V16.875ZM7.5 20.625H20.625V22.5H7.5V20.625ZM9.375 8.4375C9.37512 8.06803 9.44802 7.70221 9.58952 7.36092C9.73102 7.01962 9.93836 6.70954 10.1997 6.44837C10.461 6.18721 10.7713 5.98008 11.1126 5.8388C11.454 5.69753 11.8199 5.62488 12.1894 5.625C12.5588 5.62512 12.9247 5.69802 13.266 5.83952C13.6073 5.98102 13.9173 6.18836 14.1785 6.4497C14.4397 6.71104 14.6468 7.02126 14.7881 7.36265C14.9293 7.70404 15.002 8.06991 15.0019 8.43937C15.0016 9.18554 14.705 9.90106 14.1772 10.4285C13.6494 10.9559 12.9337 11.2521 12.1875 11.2519C11.4413 11.2516 10.7258 10.955 10.1984 10.4272C9.67093 9.89938 9.37475 9.18367 9.375 8.4375ZM14.0625 11.25H10.3125C8.76562 11.25 7.5 12.0938 7.5 13.125V15H16.875V13.125C16.875 12.0938 15.6094 11.25 14.0625 11.25Z" fill="black"/>
</svg>
