<svg width="30" height="30" viewBox="0 0 30 20" fill="none" xmlns="http://www.w3.org/2000/svg">
<path d="M6.5 20.3125H8.25L19.0312 9.53125L17.2812 7.78125L6.5 18.5625V20.3125ZM24.375 7.71875L19.0625 2.46875L20.8125 0.71875C21.2917 0.239583 21.8804 0 22.5788 0C23.2771 0 23.8654 0.239583 24.3438 0.71875L26.0938 2.46875C26.5729 2.94792 26.8229 3.52625 26.8438 4.20375C26.8646 4.88125 26.6354 5.45917 26.1562 5.9375L24.375 7.71875ZM22.5625 9.5625L9.3125 22.8125H4V17.5L17.25 4.25L22.5625 9.5625ZM18.1562 8.65625L17.2812 7.78125L19.0312 9.53125L18.1562 8.65625Z" fill="black"/>
</svg>
