<svg width="30" height="30" viewBox="0 0 30 25" fill="none" xmlns="http://www.w3.org/2000/svg">
<path d="M21.2771 18.298V4.57422H7.89044V25.3076H14.5829" fill="white"/>
<path d="M17.9863 26.3738C20.5473 26.3738 22.6234 24.2977 22.6234 21.7367C22.6234 19.1757 20.5473 17.0996 17.9863 17.0996C15.4253 17.0996 13.3492 19.1757 13.3492 21.7367C13.3492 24.2977 15.4253 26.3738 17.9863 26.3738Z" fill="#D0CFCE"/>
<path d="M21.2771 18.298V4.57422H7.89044V25.3076H14.5829M9.86128 6.67464H13.3334M9.86128 10.208H19.0279M9.86128 11.7792H19.0279M9.86128 13.3501H19.0279M9.86128 14.9213H19.0279M9.86128 16.4926H19.0279M15.1584 18.0621H9.86253M13.8542 19.633H9.86253M13.3834 21.2038H9.86253" stroke="black" stroke-width="0.666667" stroke-miterlimit="10" stroke-linecap="round" stroke-linejoin="round"/>
<path d="M17.9863 26.3728C20.5473 26.3728 22.6234 24.2967 22.6234 21.7357C22.6234 19.1747 20.5473 17.0986 17.9863 17.0986C15.4253 17.0986 13.3492 19.1747 13.3492 21.7357C13.3492 24.2967 15.4253 26.3728 17.9863 26.3728Z" stroke="black" stroke-width="0.666667" stroke-miterlimit="10" stroke-linecap="round" stroke-linejoin="round"/>
<path d="M21.2771 25.3076L23.555 27.5856M13.9329 20.1885H19.5313M13.405 22.4326H19.5313" stroke="black" stroke-width="0.666667" stroke-miterlimit="10" stroke-linecap="round" stroke-linejoin="round"/>
</svg>
