<svg width="30" height="30" viewBox="0 0 30 30" fill="none" xmlns="http://www.w3.org/2000/svg">
<path d="M26.65 6.31287L19.15 3.81287H19.0625C19.0043 3.80703 18.9457 3.80703 18.8875 3.81287H18.35L11.25 6.25037L4.15 3.81287C3.96202 3.75089 3.76201 3.73443 3.56642 3.76485C3.37084 3.79528 3.18527 3.87172 3.025 3.98787C2.86345 4.10289 2.73159 4.2547 2.6403 4.43076C2.54901 4.60681 2.50092 4.80206 2.5 5.00037V22.5004C2.49933 22.7624 2.58103 23.0181 2.73356 23.2312C2.88609 23.4443 3.10173 23.604 3.35 23.6879L10.85 26.1879C11.1018 26.27 11.3732 26.27 11.625 26.1879L18.75 23.8129L25.85 26.2504C25.9827 26.2684 26.1173 26.2684 26.25 26.2504C26.5114 26.2541 26.7665 26.1705 26.975 26.0129C27.1366 25.8979 27.2684 25.746 27.3597 25.57C27.451 25.3939 27.4991 25.1987 27.5 25.0004V7.50037C27.5007 7.23832 27.419 6.98268 27.2665 6.76959C27.1139 6.5565 26.8983 6.39673 26.65 6.31287ZM10 23.2629L5 21.6004V6.73787L10 8.40037V23.2629ZM17.5 21.6004L12.5 23.2629V8.40037L17.5 6.73787V21.6004ZM25 23.2629L20 21.6004V6.73787L25 8.40037V23.2629Z" fill="black"/>
</svg>
