<svg width="30" height="30" viewBox="0 0 30 30" fill="none" xmlns="http://www.w3.org/2000/svg">
<g clip-path="url(#clip0_246_16)">
<path d="M26.6667 10.8335H20C19.558 10.8335 19.1341 11.0091 18.8215 11.3217C18.5089 11.6342 18.3333 12.0581 18.3333 12.5002V25.0002C18.3333 25.4422 18.5089 25.8661 18.8215 26.1787C19.1341 26.4912 19.558 26.6668 20 26.6668H26.6667C27.1087 26.6668 27.5326 26.4912 27.8452 26.1787C28.1578 25.8661 28.3333 25.4422 28.3333 25.0002V12.5002C28.3333 12.0581 28.1578 11.6342 27.8452 11.3217C27.5326 11.0091 27.1087 10.8335 26.6667 10.8335ZM26.6667 12.5002V21.6668H20V12.5002H26.6667ZM20 25.0002V23.0002H26.6667V25.0002H20Z" fill="black"/>
<path d="M16.6667 18.3335H3.33332V5.00016H23.3333V9.16683H25V5.00016C25 4.55814 24.8244 4.13421 24.5118 3.82165C24.1993 3.50909 23.7754 3.3335 23.3333 3.3335H3.33332C2.8913 3.3335 2.46737 3.50909 2.15481 3.82165C1.84225 4.13421 1.66666 4.55814 1.66666 5.00016V18.3335C1.66666 18.7755 1.84225 19.1994 2.15481 19.512C2.46737 19.8246 2.8913 20.0002 3.33332 20.0002H16.6667V18.3335Z" fill="black"/>
<path d="M16.6667 21.6665H7.49999C7.27898 21.6665 7.06701 21.7543 6.91073 21.9106C6.75445 22.0669 6.66666 22.2788 6.66666 22.4998C6.66666 22.7209 6.75445 22.9328 6.91073 23.0891C7.06701 23.2454 7.27898 23.3332 7.49999 23.3332H16.6667V21.6665Z" fill="black"/>
</g>
<defs>
<clipPath id="clip0_246_16">
<rect width="30" height="30" fill="white"/>
</clipPath>
</defs>
</svg>
