<svg width="25" height="25" viewBox="0 0 25 25" fill="none" xmlns="http://www.w3.org/2000/svg">
<path fill-rule="evenodd" clip-rule="evenodd" d="M17.2188 5.89062V8.32812L18.7813 6.78125V3.90625L18 3.125H3.9375L3.15625 3.90625V4.66563L3.125 4.6875V20.7656L3.6875 21.4844L11.5 24.1719L12.5 23.4375V21.875H18L18.7813 21.0938V18.2656L17.2188 16.7031V20.3125H12.5V7.35938L11.9844 6.64062L6.30625 4.6875H17.2188V5.89062ZM10.9375 22.3125L4.6875 20.2188V5.8125L10.9375 7.90625V22.3125ZM21.125 13.25H13.3594V11.6875H21.0625L18.5625 9.1875L19.6719 8.09375L23.5312 11.9375V13.0469L19.6406 16.9219L18.5469 15.8281L21.125 13.25Z" fill="black"/>
</svg>
