<svg width="18" height="28" viewBox="0 0 20 20" fill="none" xmlns="http://www.w3.org/2000/svg">
<path d="M0 28L1.49705 26.4065L3.00095 28L4.50029 26.4065L5.99733 28L7.50124 26.4065L8.99829 28L10.4988 26.4065L12.0015 28L13.5009 26.4065L15.0002 28L16.5007 26.4065L18 28V18.9489H0V28ZM17.4275 15.2286C17.0229 15.2286 10.7616 15.0522 10.7616 12.1298C10.7616 9.20727 11.6187 2.74401 11.6187 2.74401C11.6187 2.74401 11.9044 0 8.99943 0C6.09447 0 6.38017 2.74401 6.38017 2.74401C6.38017 2.74401 7.23726 9.20621 7.23726 12.1287C7.23726 15.0512 0.974795 15.2265 0.571392 15.2265C0 15.2265 0 16.4652 0 16.4652V17.8143H17.9989V16.4652C17.9989 16.4652 17.9989 15.2265 17.4275 15.2265V15.2286ZM8.99943 5.53371C8.2909 5.53371 7.7138 3.20719 7.7138 2.54854C7.7138 1.8899 8.2909 1.35129 8.99943 1.35129C9.70796 1.35129 10.2851 1.88671 10.2851 2.54642C10.2851 3.20613 9.70796 5.53371 8.99943 5.53371Z" fill="black"/>
</svg>
