<svg width="30" height="30" viewBox="0 0 30 30" fill="none" xmlns="http://www.w3.org/2000/svg">
<path d="M5.625 7.96875C5.625 6.60123 6.16825 5.28972 7.13523 4.32273C8.10222 3.35575 9.41373 2.8125 10.7812 2.8125C12.1488 2.8125 13.4603 3.35575 14.4273 4.32273C15.3943 5.28972 15.9375 6.60123 15.9375 7.96875C15.9375 9.33627 15.3943 10.6478 14.4273 11.6148C13.4603 12.5818 12.1488 13.125 10.7812 13.125C9.41373 13.125 8.10222 12.5818 7.13523 11.6148C6.16825 10.6478 5.625 9.33627 5.625 7.96875ZM17.8125 10.7812C17.8125 10.2272 17.9216 9.67865 18.1336 9.1668C18.3456 8.65496 18.6564 8.18989 19.0481 7.79814C19.4399 7.4064 19.905 7.09564 20.4168 6.88363C20.9286 6.67162 21.4772 6.5625 22.0312 6.5625C22.5853 6.5625 23.1339 6.67162 23.6457 6.88363C24.1575 7.09564 24.6226 7.4064 25.0144 7.79814C25.4061 8.18989 25.7169 8.65496 25.9289 9.1668C26.1409 9.67865 26.25 10.2272 26.25 10.7812C26.25 11.9001 25.8055 12.9732 25.0144 13.7644C24.2232 14.5555 23.1501 15 22.0312 15C20.9124 15 19.8393 14.5555 19.0481 13.7644C18.257 12.9732 17.8125 11.9001 17.8125 10.7812ZM1.875 23.9062C1.875 21.5442 2.81333 19.2788 4.48358 17.6086C6.15383 15.9383 8.41917 15 10.7812 15C13.1433 15 15.4087 15.9383 17.0789 17.6086C18.7492 19.2788 19.6875 21.5442 19.6875 23.9062V23.91L19.6862 24.0588C19.6836 24.2177 19.6406 24.3734 19.5612 24.5112C19.4818 24.6489 19.3687 24.7642 19.2325 24.8463C16.6815 26.3825 13.7591 27.1921 10.7812 27.1875C7.69125 27.1875 4.79875 26.3325 2.33125 24.8463C2.19481 24.7644 2.08146 24.6491 2.00186 24.5114C1.92226 24.3736 1.87903 24.2178 1.87625 24.0588L1.875 23.9062ZM21.5625 23.91L21.5613 24.09C21.5543 24.5066 21.4548 24.9165 21.27 25.29C23.4521 25.4246 25.6318 24.9895 27.595 24.0275C27.7468 23.9533 27.8758 23.8394 27.9682 23.6979C28.0606 23.5564 28.1131 23.3926 28.12 23.2238C28.1641 22.1753 27.9368 21.1332 27.4599 20.1984C26.983 19.2637 26.2729 18.4679 25.3982 17.8881C24.5235 17.3084 23.5139 16.9644 22.4672 16.8893C21.4205 16.8143 20.3722 17.0109 19.4237 17.46C20.8152 19.3207 21.5653 21.5828 21.5613 23.9062L21.5625 23.91Z" fill="black"/>
</svg>
