<svg display="none" xmlns="http://www.w3.org/2000/svg">

    <symbol id="arrow-down" viewBox="0 0 24 24" >
        <path d="M7.41 8.58008L12 13.1701L16.59 8.58008L18 10.0001L12 16.0001L6 10.0001L7.41 8.58008Z" fill="#999999"/>
    </symbol>

    <symbol id="menu" viewBox="0 0 30 30" >
        <path d="M25 21.875C25.4815 21.8752 25.9445 22.0607 26.293 22.393C26.6415 22.7253 26.8488 23.1789 26.8719 23.6599C26.895 24.1409 26.7323 24.6123 26.4173 24.9765C26.1023 25.3407 25.6593 25.5698 25.18 25.6162L25 25.625H5C4.51848 25.6248 4.05551 25.4393 3.70702 25.107C3.35853 24.7747 3.15123 24.3211 3.12809 23.8401C3.10495 23.3591 3.26774 22.8877 3.58272 22.5235C3.8977 22.1593 4.34073 21.9302 4.82 21.8838L5 21.875H25ZM25 13.125C25.4973 13.125 25.9742 13.3225 26.3258 13.6742C26.6775 14.0258 26.875 14.5027 26.875 15C26.875 15.4973 26.6775 15.9742 26.3258 16.3258C25.9742 16.6775 25.4973 16.875 25 16.875H5C4.50272 16.875 4.02581 16.6775 3.67417 16.3258C3.32254 15.9742 3.125 15.4973 3.125 15C3.125 14.5027 3.32254 14.0258 3.67417 13.6742C4.02581 13.3225 4.50272 13.125 5 13.125H25ZM25 4.375C25.4973 4.375 25.9742 4.57254 26.3258 4.92417C26.6775 5.27581 26.875 5.75272 26.875 6.25C26.875 6.74728 26.6775 7.22419 26.3258 7.57583C25.9742 7.92746 25.4973 8.125 25 8.125H5C4.50272 8.125 4.02581 7.92746 3.67417 7.57583C3.32254 7.22419 3.125 6.74728 3.125 6.25C3.125 5.75272 3.32254 5.27581 3.67417 4.92417C4.02581 4.57254 4.50272 4.375 5 4.375H25Z" fill="black"/>
    </symbol>

    <symbol id="profile" viewBox="0 0 30 30" >
        <path d="M25.3125 0H2.8125C1.26562 0 0 1.26562 0 2.8125V27.1875C0 28.7344 1.26562 30 2.8125 30H25.3125C26.8594 30 28.125 28.7344 28.125 27.1875V2.8125C28.125 1.26562 26.8594 0 25.3125 0ZM24.375 26.25H3.75V3.75H24.375V26.25ZM7.5 16.875H20.625V18.75H7.5V16.875ZM7.5 20.625H20.625V22.5H7.5V20.625ZM9.375 8.4375C9.37512 8.06803 9.44802 7.70221 9.58952 7.36092C9.73102 7.01962 9.93836 6.70954 10.1997 6.44837C10.461 6.18721 10.7713 5.98008 11.1126 5.8388C11.454 5.69753 11.8199 5.62488 12.1894 5.625C12.5588 5.62512 12.9247 5.69802 13.266 5.83952C13.6073 5.98102 13.9173 6.18836 14.1785 6.4497C14.4397 6.71104 14.6468 7.02126 14.7881 7.36265C14.9293 7.70404 15.002 8.06991 15.0019 8.43937C15.0016 9.18554 14.705 9.90106 14.1772 10.4285C13.6494 10.9559 12.9337 11.2521 12.1875 11.2519C11.4413 11.2516 10.7258 10.955 10.1984 10.4272C9.67093 9.89938 9.37475 9.18367 9.375 8.4375ZM14.0625 11.25H10.3125C8.76562 11.25 7.5 12.0938 7.5 13.125V15H16.875V13.125C16.875 12.0938 15.6094 11.25 14.0625 11.25Z" fill="black"/>
    </symbol>

    <symbol id="devices" viewBox="0 0 30 30" >
        <g clip-path="url(#clip0_246_16)">
            <path d="M26.6667 10.8335H20C19.558 10.8335 19.1341 11.0091 18.8215 11.3217C18.5089 11.6342 18.3333 12.0581 18.3333 12.5002V25.0002C18.3333 25.4422 18.5089 25.8661 18.8215 26.1787C19.1341 26.4912 19.558 26.6668 20 26.6668H26.6667C27.1087 26.6668 27.5326 26.4912 27.8452 26.1787C28.1578 25.8661 28.3333 25.4422 28.3333 25.0002V12.5002C28.3333 12.0581 28.1578 11.6342 27.8452 11.3217C27.5326 11.0091 27.1087 10.8335 26.6667 10.8335ZM26.6667 12.5002V21.6668H20V12.5002H26.6667ZM20 25.0002V23.0002H26.6667V25.0002H20Z" fill="black"/>
            <path d="M16.6667 18.3335H3.33332V5.00016H23.3333V9.16683H25V5.00016C25 4.55814 24.8244 4.13421 24.5118 3.82165C24.1993 3.50909 23.7754 3.3335 23.3333 3.3335H3.33332C2.8913 3.3335 2.46737 3.50909 2.15481 3.82165C1.84225 4.13421 1.66666 4.55814 1.66666 5.00016V18.3335C1.66666 18.7755 1.84225 19.1994 2.15481 19.512C2.46737 19.8246 2.8913 20.0002 3.33332 20.0002H16.6667V18.3335Z" fill="black"/>
            <path d="M16.6667 21.6665H7.49999C7.27898 21.6665 7.06701 21.7543 6.91073 21.9106C6.75445 22.0669 6.66666 22.2788 6.66666 22.4998C6.66666 22.7209 6.75445 22.9328 6.91073 23.0891C7.06701 23.2454 7.27898 23.3332 7.49999 23.3332H16.6667V21.6665Z" fill="black"/>
        </g>
    </symbol>

    <symbol id="users" viewBox="0 0 30 30" >
        <path d="M5.625 7.96875C5.625 6.60123 6.16825 5.28972 7.13523 4.32273C8.10222 3.35575 9.41373 2.8125 10.7812 2.8125C12.1488 2.8125 13.4603 3.35575 14.4273 4.32273C15.3943 5.28972 15.9375 6.60123 15.9375 7.96875C15.9375 9.33627 15.3943 10.6478 14.4273 11.6148C13.4603 12.5818 12.1488 13.125 10.7812 13.125C9.41373 13.125 8.10222 12.5818 7.13523 11.6148C6.16825 10.6478 5.625 9.33627 5.625 7.96875ZM17.8125 10.7812C17.8125 10.2272 17.9216 9.67865 18.1336 9.1668C18.3456 8.65496 18.6564 8.18989 19.0481 7.79814C19.4399 7.4064 19.905 7.09564 20.4168 6.88363C20.9286 6.67162 21.4772 6.5625 22.0312 6.5625C22.5853 6.5625 23.1339 6.67162 23.6457 6.88363C24.1575 7.09564 24.6226 7.4064 25.0144 7.79814C25.4061 8.18989 25.7169 8.65496 25.9289 9.1668C26.1409 9.67865 26.25 10.2272 26.25 10.7812C26.25 11.9001 25.8055 12.9732 25.0144 13.7644C24.2232 14.5555 23.1501 15 22.0312 15C20.9124 15 19.8393 14.5555 19.0481 13.7644C18.257 12.9732 17.8125 11.9001 17.8125 10.7812ZM1.875 23.9062C1.875 21.5442 2.81333 19.2788 4.48358 17.6086C6.15383 15.9383 8.41917 15 10.7812 15C13.1433 15 15.4087 15.9383 17.0789 17.6086C18.7492 19.2788 19.6875 21.5442 19.6875 23.9062V23.91L19.6862 24.0588C19.6836 24.2177 19.6406 24.3734 19.5612 24.5112C19.4818 24.6489 19.3687 24.7642 19.2325 24.8463C16.6815 26.3825 13.7591 27.1921 10.7812 27.1875C7.69125 27.1875 4.79875 26.3325 2.33125 24.8463C2.19481 24.7644 2.08146 24.6491 2.00186 24.5114C1.92226 24.3736 1.87903 24.2178 1.87625 24.0588L1.875 23.9062ZM21.5625 23.91L21.5613 24.09C21.5543 24.5066 21.4548 24.9165 21.27 25.29C23.4521 25.4246 25.6318 24.9895 27.595 24.0275C27.7468 23.9533 27.8758 23.8394 27.9682 23.6979C28.0606 23.5564 28.1131 23.3926 28.12 23.2238C28.1641 22.1753 27.9368 21.1332 27.4599 20.1984C26.983 19.2637 26.2729 18.4679 25.3982 17.8881C24.5235 17.3084 23.5139 16.9644 22.4672 16.8893C21.4205 16.8143 20.3722 17.0109 19.4237 17.46C20.8152 19.3207 21.5653 21.5828 21.5613 23.9062L21.5625 23.91Z" fill="black"/>
    </symbol>

    <symbol id="groups" viewBox="0 0 30 30" >
        <path d="M28.75 13.7625L22.5 13.75C21.8125 13.75 21.25 14.3125 21.25 15V26.25C21.25 26.9375 21.8125 27.5 22.5 27.5H28.75C29.4375 27.5 30 26.9375 30 26.25V15C30 14.3125 29.4375 13.7625 28.75 13.7625ZM28.75 25H22.5V16.25H28.75V25ZM25 2.5H2.5C1.1125 2.5 0 3.6125 0 5V20C0 20.663 0.263392 21.2989 0.732233 21.7678C1.20107 22.2366 1.83696 22.5 2.5 22.5H11.25V25H8.75V27.5H18.75V25H16.25V22.5H18.75V20H2.5V5H25V11.25H27.5V5C27.5 4.33696 27.2366 3.70107 26.7678 3.23223C26.2989 2.76339 25.663 2.5 25 2.5ZM14.9625 11.25L13.75 7.5L12.5375 11.25H8.75L11.8375 13.45L10.6625 17.0875L13.75 14.8375L16.8375 17.0875L15.6625 13.45L18.75 11.25H14.9625Z" fill="black"/>
    </symbol>

    <symbol id="map" viewBox="0 0 30 30" >
        <path d="M26.65 6.31287L19.15 3.81287H19.0625C19.0043 3.80703 18.9457 3.80703 18.8875 3.81287H18.35L11.25 6.25037L4.15 3.81287C3.96202 3.75089 3.76201 3.73443 3.56642 3.76485C3.37084 3.79528 3.18527 3.87172 3.025 3.98787C2.86345 4.10289 2.73159 4.2547 2.6403 4.43076C2.54901 4.60681 2.50092 4.80206 2.5 5.00037V22.5004C2.49933 22.7624 2.58103 23.0181 2.73356 23.2312C2.88609 23.4443 3.10173 23.604 3.35 23.6879L10.85 26.1879C11.1018 26.27 11.3732 26.27 11.625 26.1879L18.75 23.8129L25.85 26.2504C25.9827 26.2684 26.1173 26.2684 26.25 26.2504C26.5114 26.2541 26.7665 26.1705 26.975 26.0129C27.1366 25.8979 27.2684 25.746 27.3597 25.57C27.451 25.3939 27.4991 25.1987 27.5 25.0004V7.50037C27.5007 7.23832 27.419 6.98268 27.2665 6.76959C27.1139 6.5565 26.8983 6.39673 26.65 6.31287ZM10 23.2629L5 21.6004V6.73787L10 8.40037V23.2629ZM17.5 21.6004L12.5 23.2629V8.40037L17.5 6.73787V21.6004ZM25 23.2629L20 21.6004V6.73787L25 8.40037V23.2629Z" fill="black"/>
    </symbol>

    <symbol id="signOut" viewBox="0 0 25 25" >
        <path fill-rule="evenodd" clip-rule="evenodd" d="M17.2188 5.89062V8.32812L18.7813 6.78125V3.90625L18 3.125H3.9375L3.15625 3.90625V4.66563L3.125 4.6875V20.7656L3.6875 21.4844L11.5 24.1719L12.5 23.4375V21.875H18L18.7813 21.0938V18.2656L17.2188 16.7031V20.3125H12.5V7.35938L11.9844 6.64062L6.30625 4.6875H17.2188V5.89062ZM10.9375 22.3125L4.6875 20.2188V5.8125L10.9375 7.90625V22.3125ZM21.125 13.25H13.3594V11.6875H21.0625L18.5625 9.1875L19.6719 8.09375L23.5312 11.9375V13.0469L19.6406 16.9219L18.5469 15.8281L21.125 13.25Z" fill="black"/>
    </symbol>

    <symbol id="add" viewBox="0 0 30 25" >
        <path d="M13.75 16.25H6.25V13.75H13.75V6.25H16.25V13.75H23.75V16.25H16.25V23.75H13.75V16.25Z" fill="black"/>
    </symbol>

    <symbol id="delete" viewBox="0 0 30 20" >
        <path d="M8.75 22.5C8.0625 22.5 7.47375 22.255 6.98375 21.765C6.49375 21.275 6.24917 20.6867 6.25 20V3.75H5V1.25H11.25V0H18.75V1.25H25V3.75H23.75V20C23.75 20.6875 23.505 21.2763 23.015 21.7663C22.525 22.2563 21.9367 22.5008 21.25 22.5H8.75ZM21.25 3.75H8.75V20H21.25V3.75ZM11.25 17.5H13.75V6.25H11.25V17.5ZM16.25 17.5H18.75V6.25H16.25V17.5Z" fill="black"/>
    </symbol>

    <symbol id="edit" viewBox="0 0 30 20" >
        <path d="M6.5 20.3125H8.25L19.0312 9.53125L17.2812 7.78125L6.5 18.5625V20.3125ZM24.375 7.71875L19.0625 2.46875L20.8125 0.71875C21.2917 0.239583 21.8804 0 22.5788 0C23.2771 0 23.8654 0.239583 24.3438 0.71875L26.0938 2.46875C26.5729 2.94792 26.8229 3.52625 26.8438 4.20375C26.8646 4.88125 26.6354 5.45917 26.1562 5.9375L24.375 7.71875ZM22.5625 9.5625L9.3125 22.8125H4V17.5L17.25 4.25L22.5625 9.5625ZM18.1562 8.65625L17.2812 7.78125L19.0312 9.53125L18.1562 8.65625Z" fill="black"/>
    </symbol>

    <symbol id="details" viewBox="0 0 30 25" >
        <path d="M21.2771 18.298V4.57422H7.89044V25.3076H14.5829" fill="white"/>
        <path d="M17.9863 26.3738C20.5473 26.3738 22.6234 24.2977 22.6234 21.7367C22.6234 19.1757 20.5473 17.0996 17.9863 17.0996C15.4253 17.0996 13.3492 19.1757 13.3492 21.7367C13.3492 24.2977 15.4253 26.3738 17.9863 26.3738Z" fill="#D0CFCE"/>
        <path d="M21.2771 18.298V4.57422H7.89044V25.3076H14.5829M9.86128 6.67464H13.3334M9.86128 10.208H19.0279M9.86128 11.7792H19.0279M9.86128 13.3501H19.0279M9.86128 14.9213H19.0279M9.86128 16.4926H19.0279M15.1584 18.0621H9.86253M13.8542 19.633H9.86253M13.3834 21.2038H9.86253" stroke="black" stroke-width="0.666667" stroke-miterlimit="10" stroke-linecap="round" stroke-linejoin="round"/>
        <path d="M17.9863 26.3728C20.5473 26.3728 22.6234 24.2967 22.6234 21.7357C22.6234 19.1747 20.5473 17.0986 17.9863 17.0986C15.4253 17.0986 13.3492 19.1747 13.3492 21.7357C13.3492 24.2967 15.4253 26.3728 17.9863 26.3728Z" stroke="black" stroke-width="0.666667" stroke-miterlimit="10" stroke-linecap="round" stroke-linejoin="round"/>
        <path d="M21.2771 25.3076L23.555 27.5856M13.9329 20.1885H19.5313M13.405 22.4326H19.5313" stroke="black" stroke-width="0.666667" stroke-miterlimit="10" stroke-linecap="round" stroke-linejoin="round"/>
    </symbol>
</svg>